<svg class="h-14 w-14 mr-8" version="1.1" id="Layer_1" xmlns="http://www.w3.org/2000/svg" viewBox="0 0 1200 1200">
  <path d="M606.5,413l-508-262.5l79.7,444.1c6.4,35.9,26.4,67.1,56.3,87.9l119.2,83.2l8.3,107.2L605.3,1048l243.3-174 l9.7-109.3l121.7-87.2c29.2-20.9,48.7-51.9,55-87.2l78-439.8L606.5,413z M1016.3,587c-5.4,30.4-22.2,57.1-47.3,75.1l-128.8,92.3 l-9.7,109.3l-225.2,161l-225-162l-8.3-107.4L245.5,667c-25.7-17.9-42.9-44.8-48.5-75.7l-72.9-406.2l482.5,249.3l481-249.3 L1016.3,587z" style="fill: rgb(252, 0, 0);"></path>
  <path d="M606.6,434.4L124.1,185.1L197,591.3c5.5,30.9,22.8,57.7,48.5,75.7l126.6,88.3l8.3,107.4l225,162l225.2-161l9.7-109.3 L969,662.1c25.1-18,41.9-44.7,47.3-75.1l71.2-401.9L606.6,434.4z"></path>
  <g style="opacity: 0.3;"><path d="M1054.1,439.4" style="fill: none; stroke: rgb(0, 0, 0); stroke-miterlimit: 10;"></path></g>
  <g style="opacity: 0.3;">
    <path d="M367.1,698.4" style="fill: rgb(255, 255, 255); stroke: rgb(0, 0, 0); stroke-miterlimit: 10;"></path>
  </g>
  <g style="opacity: 0.3;"><path d="M612.1,506.9" style="fill: rgb(255, 255, 255); stroke: rgb(0, 0, 0); stroke-miterlimit: 10;"></path>
    
  </g>
  <g style="opacity: 0.3;">
    <path d="M844.7,698.4" style="fill: rgb(255, 255, 255); stroke: rgb(0, 0, 0); stroke-miterlimit: 10;"></path>
  </g>
  <g>
    <g><polygon points="350.1,510.4 335.2,342.4 181.1,262.4 211.1,427.5 " style="fill: rgb(255, 255, 255);"></polygon></g>
    <g><path d="M367.1,698.4L355,564.2l-133.9-78.8l16.6,94.5c3.4,19.5,14.4,36.9,30.6,48.4L367.1,698.4" style="fill: rgb(255, 255, 255);"></path></g>
    <g><polygon points="861.7,510.4 876.6,342.4 1030.7,262.4 1000.8,427.5 " style="fill: rgb(255, 255, 255);"></polygon></g>
    <g><path d="M844.7,698.4l12.1-134.2l133.9-78.8l-16.6,94.5c-3.4,19.5-14.4,36.9-30.6,48.4L844.7,698.4" style="fill: rgb(255, 255, 255);"></path></g>
  </g>
  <g>
<path d="M380.1,365.4l158.6,82l9,113l58.2-42l58.4,42l9-113l158.6-82l-42,475l-162.6,117l0.1-118 c0-34.5,16.8-66.8,44.9-86.7l66.8-47.3l7-75l-139.5,83.4l-140.7-83.4l7,75l67.1,47.2c28.5,20,45.4,52.7,45.2,87.6l-0.5,117.3 l-162.6-117L380.1,365.4z" style="fill: rgb(255, 255, 255);"></path>
  </g>
</svg>