<svg viewBox="0 0 129 63" fill="none" xmlns="http://www.w3.org/2000/svg" class="sc-c650b547-0 dApPNM">
    <path d="M64.8894 9.39405L19.4629 0.617662L64.8894 57.4063L110.316 0.617662L64.8894 9.39405Z" fill="#ED1C24"></path>
    <path d="M40.2912 33.373L38.2713 33.0139C38.2296 33.0074 38.188 32.9978 38.1461 32.9915L23.7045 30.4163C23.7045 30.4163 29.4343 39.2478 34.2888 40.1136C34.3722 40.1296 34.4557 40.1425 34.5358 40.1584L44.1871 41.8773C44.2385 35.4157 42.3562 33.9117 40.2912 33.373" class="sc-c650b547-1 jUdXOJ" fill="#000"></path>
    <path d="M41.9618 17.5356C42.0131 11.074 40.1309 9.57004 38.066 9.0313L36.046 8.67219C36.0044 8.66572 35.9627 8.65608 35.9209 8.64961L0.889404 2.10787C0.889404 2.10787 6.61926 10.9394 11.4739 11.8052C11.5572 11.8211 32.2304 15.8007 32.3106 15.8168L41.9618 17.5356" class="sc-c650b547-1 jUdXOJ" fill="#000"></path>
    <path d="M91.5074 33.0139L89.4873 33.373C87.4223 33.9117 85.5401 35.4157 85.5916 41.8773L95.2428 40.1584C95.323 40.1425 95.4065 40.1296 95.4899 40.1136C100.344 39.2478 106.074 30.4163 106.074 30.4163L91.6324 32.9915C91.5907 32.9978 91.549 33.0074 91.5074 33.0139" class="sc-c650b547-1 jUdXOJ" fill="#000"></path>
    <path d="M93.8577 8.64961C93.8161 8.65608 93.7744 8.66572 93.7327 8.67219L91.7126 9.0313C89.6477 9.57004 87.7655 11.074 87.8169 17.5356L97.4682 15.8168C97.5484 15.8007 118.222 11.8211 118.305 11.8052C123.159 10.9394 128.889 2.10787 128.889 2.10787L93.8577 8.64961Z" class="sc-c650b547-1 jUdXOJ" fill="#000"></path>
    <path d="M85.0222 10.1775C85.0222 10.1775 77.9215 11.1484 76.611 11.6183C75.5906 11.9842 72.8684 12.9551 72.6901 15.9252C72.512 18.8953 72.2447 24.2732 72.2447 24.2732L64.8893 25.6356L57.5341 24.2732C57.5341 24.2732 57.2667 18.8953 57.0886 15.9252C56.9103 12.9551 54.1881 11.9842 53.1677 11.6183C51.8572 11.1484 44.7565 10.1775 44.7565 10.1775L45.7308 21.9093L12.1644 15.9252C12.1644 15.9252 17.8943 24.7565 22.749 25.6223C22.8547 25.6416 22.9604 25.6608 23.0599 25.6801L46.3893 29.8386L47.7906 46.711L60.7764 62.4897C60.7764 62.4897 59.0773 41.7347 58.8346 39.186C58.5919 36.637 56.1646 36.1469 53.7374 36.1469V31.0064L64.8893 33.3772L76.0413 31.0064V36.1469C73.6141 36.1469 71.1868 36.637 70.9441 39.186C70.7014 41.7347 69.0023 62.4897 69.0023 62.4897L81.9881 46.711L83.3894 29.8386L106.719 25.6801C106.818 25.6608 106.924 25.6416 107.03 25.6223C111.884 24.7565 117.614 15.9252 117.614 15.9252L84.0477 21.9093L85.0222 10.1775" class="sc-c650b547-1 jUdXOJ" fill="#000"></path>
</svg>